<svg id="logout" xmlns="http://www.w3.org/2000/svg" width="20" height="20" viewBox="0 0 115.297 124.388">
  <g id="Group_26" data-name="Group 26">
    <path id="Path_40" data-name="Path 40" d="M72.761,117.26H40.317a15.992,15.992,0,0,1-15.971-15.971V23.1A15.992,15.992,0,0,1,40.317,7.127H73.288a3.564,3.564,0,0,0,0-7.127H40.317a23.124,23.124,0,0,0-23.1,23.1v78.191a23.124,23.124,0,0,0,23.1,23.1H72.761a3.564,3.564,0,0,0,0-7.127Z" transform="translate(-17.219)" fill="#fff"/>
    <path id="Path_41" data-name="Path 41" d="M207.5,160.024l-22.65-22.65a3.565,3.565,0,0,0-5.042,5.042l16.578,16.578h-72.3a3.564,3.564,0,1,0,0,7.127h72.3L179.809,182.7a3.577,3.577,0,0,0,2.508,6.1,3.477,3.477,0,0,0,2.508-1.056l22.65-22.65A3.561,3.561,0,0,0,207.5,160.024Z" transform="translate(-93.25 -100.338)" fill="#fff"/>
  </g>
</svg>
